<?xml version="1.0" encoding="UTF-8"?>
<svg xmlns="http://www.w3.org/2000/svg" xmlns:xlink="http://www.w3.org/1999/xlink" width="50px" height="50px" viewBox="0 0 50 50" version="1.1">
<g id="surface1">
<rect x="0" y="0" width="50" height="50" style="fill:rgb(100%,60%,0%);fill-opacity:1;stroke:none;"/>
<path style=" stroke:none;fill-rule:nonzero;fill:rgb(87.058824%,52.156863%,0%);fill-opacity:1;" d="M 25 25 L 50 25 L 50 49.921875 L 25 49.921875 Z M 25 25 "/>
<path style=" stroke:none;fill-rule:nonzero;fill:rgb(100%,69.411765%,23.137255%);fill-opacity:1;" d="M 0 0 L 25 0 L 25 25 L 0 25 Z M 0 0 "/>
<path style=" stroke:none;fill-rule:nonzero;fill:rgb(100%,60%,0%);fill-opacity:1;" d="M 18.449219 24.960938 C 18.449219 30.035156 14.335938 34.148438 9.261719 34.148438 C 4.1875 34.148438 0.078125 30.035156 0.078125 24.960938 C 0.078125 19.886719 4.1875 15.777344 9.261719 15.777344 C 14.335938 15.777344 18.449219 19.886719 18.449219 24.960938 Z M 18.449219 24.960938 "/>
<path style=" stroke:none;fill-rule:nonzero;fill:rgb(100%,60%,0%);fill-opacity:1;" d="M 23.066406 13.804688 C 23.066406 18.878906 18.957031 22.992188 13.882812 22.992188 C 8.808594 22.992188 4.695312 18.878906 4.695312 13.804688 C 4.695312 8.734375 8.808594 4.621094 13.882812 4.621094 C 18.957031 4.621094 23.066406 8.734375 23.066406 13.804688 Z M 23.066406 13.804688 "/>
<path style=" stroke:none;fill-rule:nonzero;fill:rgb(100%,60%,0%);fill-opacity:1;" d="M 34.222656 9.183594 C 34.222656 14.257812 30.109375 18.371094 25.039062 18.371094 C 19.964844 18.371094 15.851562 14.257812 15.851562 9.183594 C 15.851562 4.113281 19.964844 0 25.039062 0 C 30.109375 0 34.222656 4.113281 34.222656 9.183594 Z M 34.222656 9.183594 "/>
<path style=" stroke:none;fill-rule:nonzero;fill:rgb(100%,60%,0%);fill-opacity:1;" d="M 45.378906 13.804688 C 45.378906 18.878906 41.265625 22.992188 36.191406 22.992188 C 31.121094 22.992188 27.007812 18.878906 27.007812 13.804688 C 27.007812 8.734375 31.121094 4.621094 36.191406 4.621094 C 41.265625 4.621094 45.378906 8.734375 45.378906 13.804688 Z M 45.378906 13.804688 "/>
<path style=" stroke:none;fill-rule:nonzero;fill:rgb(100%,60%,0%);fill-opacity:1;" d="M 50 24.960938 C 50 30.035156 45.886719 34.148438 40.8125 34.148438 C 35.742188 34.148438 31.628906 30.035156 31.628906 24.960938 C 31.628906 19.886719 35.742188 15.777344 40.8125 15.777344 C 45.886719 15.777344 50 19.886719 50 24.960938 Z M 50 24.960938 "/>
<path style=" stroke:none;fill-rule:nonzero;fill:rgb(100%,60%,0%);fill-opacity:1;" d="M 45.378906 36.117188 C 45.378906 41.191406 41.265625 45.304688 36.191406 45.304688 C 31.121094 45.304688 27.007812 41.191406 27.007812 36.117188 C 27.007812 31.042969 31.121094 26.933594 36.191406 26.933594 C 41.265625 26.933594 45.378906 31.042969 45.378906 36.117188 Z M 45.378906 36.117188 "/>
<path style=" stroke:none;fill-rule:nonzero;fill:rgb(100%,60%,0%);fill-opacity:1;" d="M 34.222656 40.738281 C 34.222656 45.8125 30.109375 49.921875 25.039062 49.921875 C 19.964844 49.921875 15.851562 45.8125 15.851562 40.738281 C 15.851562 35.664062 19.964844 31.550781 25.039062 31.550781 C 30.109375 31.550781 34.222656 35.664062 34.222656 40.738281 Z M 34.222656 40.738281 "/>
<path style=" stroke:none;fill-rule:nonzero;fill:rgb(100%,60%,0%);fill-opacity:1;" d="M 23.066406 36.117188 C 23.066406 41.191406 18.957031 45.304688 13.882812 45.304688 C 8.808594 45.304688 4.695312 41.191406 4.695312 36.117188 C 4.695312 31.042969 8.808594 26.933594 13.882812 26.933594 C 18.957031 26.933594 23.066406 31.042969 23.066406 36.117188 Z M 23.066406 36.117188 "/>
<path style=" stroke:none;fill-rule:nonzero;fill:rgb(0%,0%,0%);fill-opacity:1;" d="M 31.574219 9.183594 C 31.574219 5.578125 28.644531 2.648438 25.039062 2.648438 C 21.429688 2.648438 18.503906 5.578125 18.503906 9.183594 C 15.949219 6.632812 11.8125 6.632812 9.261719 9.183594 C 6.710938 11.738281 6.710938 15.875 9.261719 18.425781 C 5.652344 18.425781 2.726562 21.355469 2.726562 24.960938 C 2.726562 28.570312 5.652344 31.496094 9.261719 31.496094 C 6.710938 34.050781 6.710938 38.1875 9.261719 40.738281 C 11.8125 43.289062 15.949219 43.289062 18.503906 40.738281 C 18.503906 44.347656 21.429688 47.273438 25.039062 47.273438 C 28.644531 47.273438 31.574219 44.347656 31.574219 40.738281 C 34.125 43.289062 38.261719 43.289062 40.816406 40.738281 C 43.367188 38.1875 43.367188 34.050781 40.816406 31.496094 C 44.421875 31.496094 47.347656 28.570312 47.347656 24.960938 C 47.347656 21.355469 44.421875 18.425781 40.816406 18.425781 C 43.367188 15.875 43.367188 11.738281 40.816406 9.183594 C 38.261719 6.632812 34.125 6.632812 31.574219 9.183594 Z M 31.574219 9.183594 "/>
<path style=" stroke:none;fill-rule:nonzero;fill:rgb(100%,100%,100%);fill-opacity:1;" d="M 27.539062 11.6875 L 27.539062 18.921875 L 32.65625 13.804688 C 32.65625 12.902344 33 11.996094 33.691406 11.304688 C 35.074219 9.921875 37.3125 9.921875 38.695312 11.304688 C 40.078125 12.683594 40.078125 14.925781 38.695312 16.308594 C 38.003906 17 37.097656 17.34375 36.195312 17.34375 L 31.078125 22.460938 L 38.3125 22.460938 C 38.953125 21.820312 39.835938 21.425781 40.816406 21.425781 C 42.765625 21.425781 44.351562 23.007812 44.351562 24.960938 C 44.351562 26.914062 42.765625 28.5 40.816406 28.5 C 39.835938 28.5 38.953125 28.101562 38.3125 27.460938 L 31.078125 27.460938 L 36.195312 32.578125 C 37.097656 32.578125 38.003906 32.925781 38.695312 33.613281 C 40.078125 34.996094 40.078125 37.238281 38.695312 38.617188 C 37.3125 40 35.074219 40 33.691406 38.617188 C 33 37.929688 32.65625 37.023438 32.65625 36.117188 L 27.539062 31 L 27.539062 38.234375 C 28.179688 38.875 28.574219 39.761719 28.574219 40.738281 C 28.574219 42.691406 26.992188 44.273438 25.039062 44.273438 C 23.085938 44.273438 21.5 42.691406 21.5 40.738281 C 21.5 39.761719 21.898438 38.875 22.539062 38.234375 L 22.539062 31 L 17.421875 36.117188 C 17.421875 37.023438 17.074219 37.929688 16.382812 38.617188 C 15.003906 40 12.761719 40 11.382812 38.617188 C 10 37.238281 10 34.996094 11.382812 33.613281 C 12.070312 32.925781 12.976562 32.578125 13.882812 32.578125 L 19 27.460938 L 11.761719 27.460938 C 11.125 28.101562 10.238281 28.5 9.261719 28.5 C 7.308594 28.5 5.726562 26.914062 5.726562 24.960938 C 5.726562 23.007812 7.308594 21.425781 9.261719 21.425781 C 10.238281 21.425781 11.125 21.820312 11.761719 22.460938 L 19 22.460938 L 13.882812 17.34375 C 12.976562 17.34375 12.070312 17 11.382812 16.308594 C 10 14.925781 10 12.683594 11.382812 11.304688 C 12.761719 9.921875 15.003906 9.921875 16.382812 11.304688 C 17.074219 11.996094 17.421875 12.902344 17.421875 13.804688 L 22.539062 18.921875 L 22.539062 11.6875 C 21.898438 11.046875 21.5 10.164062 21.5 9.183594 C 21.5 7.230469 23.085938 5.648438 25.039062 5.648438 C 26.992188 5.648438 28.574219 7.230469 28.574219 9.183594 C 28.574219 10.164062 28.179688 11.046875 27.539062 11.6875 Z M 27.539062 11.6875 "/>
<path style=" stroke:none;fill-rule:nonzero;fill:rgb(0%,0%,0%);fill-opacity:1;" d="M 2.726562 25 L 47.347656 25 L 47.347656 47.273438 L 2.726562 47.273438 Z M 2.726562 25 "/>
<path style=" stroke:none;fill-rule:nonzero;fill:rgb(0%,0%,0%);fill-opacity:1;" d="M 2.726562 37.496094 L 47.347656 37.496094 L 47.347656 47.273438 L 2.726562 47.273438 Z M 2.726562 37.496094 "/>
<path style=" stroke:none;fill-rule:nonzero;fill:rgb(24.705882%,24.705882%,24.705882%);fill-opacity:1;" d="M 7.40625 27.066406 L 43.035156 27.066406 C 44.492188 27.066406 45.683594 28.257812 45.683594 29.71875 L 45.683594 38.664062 C 31.917969 36.960938 18.265625 34.605469 4.753906 34.820312 L 4.753906 29.71875 C 4.753906 28.257812 5.945312 27.066406 7.40625 27.066406 Z M 7.40625 27.066406 "/>
<path style="fill-rule:nonzero;fill:rgb(100%,100%,100%);fill-opacity:1;stroke-width:2.35153;stroke-linecap:butt;stroke-linejoin:miter;stroke:rgb(0%,0%,0%);stroke-opacity:1;stroke-miterlimit:4;" d="M 393.191351 337.586076 L 340.672425 591.361115 L 297.122575 591.361115 L 244.553821 337.586076 L 288.10367 337.586076 L 318.8975 486.223606 L 349.641501 337.586076 Z M 467.53503 442.673757 L 541.878709 442.673757 L 541.878709 517.017436 C 541.878709 558.075875 508.593469 591.361115 467.584858 591.361115 C 426.526419 591.361115 393.241179 558.075875 393.241179 517.017436 L 393.241179 411.879927 L 393.191351 411.879927 C 393.191351 370.871316 426.476591 337.586076 467.53503 337.586076 C 508.593469 337.586076 541.878709 370.871316 541.878709 411.879927 L 498.328859 411.879927 C 498.328859 394.88851 484.526447 381.135926 467.53503 381.135926 C 450.543613 381.135926 436.791029 394.88851 436.791029 411.879927 L 436.791029 517.017436 C 436.791029 534.008853 450.543613 547.811265 467.53503 547.811265 C 484.526447 547.811265 498.328859 534.008853 498.328859 517.017436 L 498.328859 486.223606 L 467.53503 486.223606 Z M 117.641388 464.448681 C 104.237601 450.995066 95.866463 432.409147 95.866463 411.879927 C 95.866463 370.821488 129.151702 337.586076 170.210142 337.586076 C 211.268581 337.586076 244.553821 370.821488 244.553821 411.879927 L 201.003971 411.879927 C 201.003971 394.88851 187.201559 381.086098 170.210142 381.086098 C 153.218725 381.086098 139.416312 394.88851 139.416312 411.879927 C 139.416312 420.40055 142.854458 428.074093 148.435217 433.654852 C 154.215289 439.434923 162.038317 442.673757 170.210142 442.673757 C 190.739362 442.673757 209.325281 450.995066 222.778896 464.448681 C 236.232511 477.902296 244.553821 496.488216 244.553821 517.017436 C 244.553821 558.075875 211.268581 591.361115 170.210142 591.361115 C 129.151702 591.361115 95.866463 558.075875 95.866463 517.017436 L 139.416312 517.017436 C 139.416312 534.008853 153.218725 547.811265 170.210142 547.811265 C 187.201559 547.811265 201.003971 534.008853 201.003971 517.017436 C 201.003971 508.546641 197.565825 500.82327 191.985067 495.242511 C 186.404308 489.71158 178.730765 486.223606 170.210142 486.223606 C 149.680922 486.223606 131.144831 477.902296 117.641388 464.448681 Z M 117.641388 464.448681 " transform="matrix(0.0783944,0,0,0.0783944,0.000235183,0)"/>
</g>
</svg>
